<svg version="1.1" viewBox="0 0 439 400" xmlns="http://www.w3.org/2000/svg">
	<path id="atom" d="m297 400c-11.9-1.01-25.1-6.29-39.3-15.8-34.6-23.1-72.5-68.7-104-126-5.55-9.93-15.1-28.6-19.3-37.7-2.69-5.82-2.69-5.82-4.83-1.57-5.45 10.8-12.5 27.2-17.3 39.8-8.53 22.8-13.7 43-15.9 61.9-0.769 6.67-0.656 20.7 0.21 26 1.9 11.5 6.03 19.2 12.6 23.5 3.88 2.52 6.94 3.26 13.4 3.25 3.03-5e-3 6.57-0.237 7.87-0.515 12.2-2.62 24.1-8.18 39.8-18.7 5.79-3.86 7.47-4.54 10-4 5.73 1.19 8.61 7.52 5.69 12.5-0.951 1.62-2.11 2.54-8.45 6.72-8.1 5.34-11.5 7.32-18.1 10.6-28 14-51 13.7-65.8-0.943-7.74-7.67-12.6-19.2-14.2-33.9-0.533-4.89-0.534-18.1-0.0023-23.9 2.5-27.5 12.5-60.9 29-97.1 2.92-6.41 11.9-24.7 13.7-27.7 0.903-1.57 0.903-1.57-1.44-7.47-5.22-13.2-10.6-28.8-14.5-42.3-1.29-4.42-2.41-8.1-2.49-8.18-0.262-0.262-12.9 2.63-20.3 4.65-43.1 11.7-68.3 30.1-66.7 48.6 0.771 9.14 7.74 18.9 20.2 28.2 4.48 3.36 14.2 9.44 18.8 11.7 3.5 1.75 5.31 4.46 5.31 7.94 0 4.71-3.53 8.22-8.26 8.22-2.38-1e-3 -3.84-0.638-11.4-4.98-9.96-5.72-18.3-12-25-18.6-7.55-7.55-12.5-15.4-15-23.6-0.979-3.24-1.07-4.11-1.09-10.2-0.0203-5.82 0.0952-7.12 0.889-10 6.59-24.1 37.1-43.8 86.4-55.7 3.91-0.942 8.23-1.93 9.61-2.19 2.93-0.566 2.84 0.696 0.733-10.2-1.81-9.33-3.21-18.8-4.06-27.5-0.812-8.29-0.927-25.6-0.214-32.2 2.15-19.7 7.82-33.7 17.2-42.5 17.8-16.7 44.3-13.4 75.6 9.28 7.01 5.08 10.7 8.3 11.6 10.1 1.84 3.56 0.594 8.19-2.85 10.6-1.53 1.07-2.01 1.2-4.59 1.2-3.27 0-2.14 0.649-12.5-7.2-15.1-11.4-29.5-17.8-40.4-17.8-15 0-23.8 11.4-27.2 35.4-0.36 2.54-0.52 7.7-0.499 16.1 0.025 10.2 0.184 13.7 0.905 19.7 0.978 8.14 3.16 21.4 4.51 27.3 0.889 3.93 0.889 3.93 2.05 3.85 0.638-0.0457 4.44-0.527 8.46-1.07 13.2-1.78 36.3-3.75 44.2-3.77 5.52-9e-3 5.1 0.262 10.7-6.83 11.4-14.3 22.1-26.2 35.5-39.6 33.2-33.1 64.5-53.1 90.3-57.6 4.78-0.847 13.7-0.952 17.9-0.21 6.17 1.11 12.4 3.78 16.9 7.3 16.8 13 22.3 39.2 15.9 76.3-1.28 7.49-2.14 9.24-5.37 10.9-1.73 0.889-5.25 0.997-7.11 0.218-1.75-0.732-4.07-3.42-4.66-5.39-0.43-1.44-0.357-2.48 0.573-8.19 1.59-9.73 1.85-12 2.19-19 1.31-26.7-5.71-42.3-20.5-45.4-6.41-1.37-15.9-0.0334-25.7 3.59-21.9 8.15-50.7 29.9-77.4 58.3-8.48 9.05-21.9 24.3-21.9 25 0 0.0906 4.82 0.283 10.7 0.427 79.4 1.94 155 20.1 197 47.4 28.1 18.3 39.3 40 31.7 61.2-3.98 11-13.4 21.3-27.6 30.2-5.2 3.25-14.4 7.94-21 10.6-6.29 2.6-8.49 2.78-11.5 0.944-2.17-1.32-4.04-4.49-4.04-6.82 7e-3 -4.39 2.23-6.93 8.08-9.24 15.9-6.28 29.6-15.3 36-23.8 3.89-5.14 5.47-9.49 5.48-15 0.01-7.18-3.2-13.6-10.6-21.3-25.6-26.6-90.2-48.1-166-55.1-15.9-1.47-38.8-2.56-54.2-2.57-7.55-7e-3 -7.55-7e-3 -12.6 6.98-12.2 16.8-23.2 33.8-33.3 51.3-4.2 7.3-4.2 7.3-2.26 11.8 7.69 17.8 18 38.3 28.7 56.8 33.7 58.6 74.7 104 108 120 16 7.71 28.1 7.74 36.3 0.115 18-16.7 17-67.4-2.48-129-6.08-19.2-14.6-40.9-24-61.2-3.4-7.32-3.84-8.51-3.85-10.5-0.0372-7.21 8.73-10.9 14-5.93 2.24 2.1 14 28.5 21.1 47.5 21 55.9 29.2 107 22.6 140-5.74 28.5-22.7 43.7-46.4 41.7zm-161-228c6.97-11.6 14.6-23.5 22.3-34.4 2.15-3.09 3.85-5.67 3.77-5.73-0.218-0.154-13.1 0.817-20 1.51-5.88 0.589-21.7 2.58-21.9 2.75-0.164 0.134 2.46 9.09 5.08 17.3 2.13 6.68 7.83 23 8.04 23 0.0446 0 1.28-1.99 2.74-4.42zm78 55.7c-6.66-1.74-13.1-7.05-16-13.2-2.04-4.28-2.61-6.78-2.6-11.4 0.0149-6.92 2.36-12.4 7.42-17.5 3.45-3.45 6.98-5.5 11.5-6.65 3.09-0.789 9.12-0.794 12.2-0.011 9.35 2.41 16.4 9.69 18.5 19 0.829 3.73 0.575 9.44-0.579 13-2.56 8.01-9.83 14.8-17.8 16.7-3.15 0.742-9.68 0.735-12.5-0.0134z" style="stroke-width:.393"/>
</svg>
