<svg version="1.1" viewBox="0 0 400 400" xmlns="http://www.w3.org/2000/svg">
	<g id="rocket">
		<path d="m120 135c20.5-28.1 41.1-55 77.8-56.2 13.4-0.423 22-5.07 31.4-12.9 30-25.4 62.9-46.3 102-55 15.9-3.59 31.9-4.44 48.2-1.48 7.13 1.27 10.7 4.44 11.9 11.8 4.61 25.6 0 49.7-9.22 73.4-12.4 32.1-32.1 59.6-54.7 85-4.19 4.65-6.08 8.67-5.03 15.2 2.1 12.3-1.68 24.1-7.54 34.9-11.3 20.5-28.1 35.7-47.4 48.4-0.838 0.634-1.89 0.634-2.51 0.846-17.8-78.4-66.2-125-145-144zm179-65.5c-17 0-31 14.2-31.2 31.1-0.21 17.3 14.3 31.5 31.6 31.5 17 0 31-14.2 31.2-31.1 0.21-17.1-14.3-31.5-31.6-31.5z" style="stroke-width:2.1"/>
		<path d="m103 374c38.6-40.2 77.1-80.5 117-123 2.51 6.76 4.4 11.4 6.08 16.3 0.629 1.9 0.838 4.02 1.47 6.13 4.61 15.2 4.19 28.1-10.5 39.3-13.2 9.94-24.1 23.3-35.8 35.1-2.1 2.11-3.98 4.44-7.34 8.03 4.19 1.06 6.71 1.9 9.43 2.33 72.7 8.24 145-37.8 167-108 5.03-15.9 5.87-33 8.8-49.5 0.838-4.44 2.1-9.09 4.61-12.7 9.01-12.9 18.7-25.2 28.1-37.8 16.3 45.5 10.5 139-62.7 201-70.4 59.6-167 59.4-227 21.8z" style="stroke-width:2.1"/>
		<path d="m250 7.2c-8.17 5.71-15.5 10.1-21.8 15.9-13.4 11.6-27.7 16.9-46.1 18.8-85.5 8.88-146 81.8-141 168 0.21 4.44 1.05 8.67 2.1 15 7.34-6.98 13-12.5 18.7-18 11.5-11.4 23.1-23 34.6-34.5 1.68-1.69 4.4-4.02 6.29-3.81 14.9 1.06 29.3 3.38 40.7 8.88-38.4 40-76.9 80.1-116 120-30-41.4-43.2-134 4.4-207 54.9-83.9 155-104 218-83.9z" style="stroke-width:2.1"/>
		<path d="m26.6 396c-12.2-0.423-18.7-4.02-21.8-11.8-3.56-8.67-1.89-16.7 4.61-23.3 13.8-14 27.9-27.9 41.7-41.6 39.6-39.5 79-78.9 118-119 3.98-4.02 6.92-4.65 11.1-0.634 5.87 5.92 11.9 11.8 18 17.5 4.82 4.44 3.98 7.82-0.419 12.3-25.8 25.4-51.3 51.2-76.9 76.5-26.8 26.6-53.2 53.5-80.3 79.9-5.03 4.86-11.5 7.61-14.5 9.72z" style="stroke-width:2.1"/>
	</g>
</svg>
